# xmcd
#
# Track frame offsets: 
#        150
#        20715
#        32352
#        44473
#        63912
#        70920
#        78592
#        93961
#        109023
#        121789
#        130717
#        164125
#        181203
#
# Disc length: 2692 seconds
#
# Revision: 0
# Processed by: cddbd v1.5.2PL0 Copyright (c) Steve Scherf et al.
# Submitted via: ExactAudioCopy v1.0b1
#
DISCID=a70a820d
DTITLE=Willie Nelson - Rainbow Connection
DYEAR=2001
DGENRE=Country
TTITLE0=Rainbow Connection
TTITLE1=I'm Looking Over A Four Leaf Clover
TTITLE2=Ol' Blue
TTITLE3=Wise Old Me
TTITLE4=Won't You Ride In My Little Red Wagon
TTITLE5=Playmate
TTITLE6=I'm My Own Grandpa
TTITLE7=Rock Me To Sleep
TTITLE8=Playin' Dominoed And Shootin' Dice
TTITLE9=Wouldn't Have It Any Other Way
TTITLE10=Outshirts Of Time
TTITLE11=Just Dropped In
TTITLE12=The Thirty Third Of August
EXTD=
EXTT0=
EXTT1=
EXTT2=
EXTT3=
EXTT4=
EXTT5=
EXTT6=
EXTT7=
EXTT8=
EXTT9=
EXTT10=
EXTT11=
EXTT12=
PLAYORDER=
